<svg width="30" height="31" viewBox="0 0 30 31" fill="none" xmlns="http://www.w3.org/2000/svg">
<path d="M30 15.5029C30 7.21839 23.2863 0.506104 15 0.506104C6.71371 0.506104 8.9407e-07 7.21839 8.9407e-07 15.5029C8.9407e-07 23.7875 6.71371 30.4998 15 30.4998C23.2863 30.4998 30 23.7875 30 15.5029ZM2.90323 15.5029C2.90323 8.82088 8.31653 3.40872 15 3.40872C21.6835 3.40872 27.0968 8.82088 27.0968 15.5029C27.0968 22.185 21.6835 27.5971 15 27.5971C8.31653 27.5971 2.90323 22.185 2.90323 15.5029ZM7.25807 16.7124V14.2935C7.25807 13.8944 7.58468 13.5679 7.98387 13.5679L15 13.5679V9.51629C15 8.86925 15.7802 8.54876 16.2399 9.00229L22.2278 14.9889C22.5121 15.2731 22.5121 15.7327 22.2278 16.0169L16.2399 22.0036C15.7802 22.4632 15 22.1366 15 21.4896V17.438H7.98387C7.58468 17.438 7.25807 17.1115 7.25807 16.7124Z" fill="black"/>
</svg>
