<svg width="30" height="31" viewBox="0 0 30 31" fill="none" xmlns="http://www.w3.org/2000/svg">
<path d="M30 15.1407C30 6.85614 23.2863 0.143799 15 0.143799C6.71371 0.143799 8.9407e-07 6.85614 8.9407e-07 15.1407C8.9407e-07 23.4254 6.71371 30.1377 15 30.1377C23.2863 30.1377 30 23.4254 30 15.1407ZM2.90323 15.1407C2.90323 8.45864 8.31653 3.04643 15 3.04643C21.6835 3.04643 27.0968 8.45864 27.0968 15.1407C27.0968 21.8229 21.6835 27.2351 15 27.2351C8.31653 27.2351 2.90323 21.8229 2.90323 15.1407ZM7.25807 16.3502V13.9313C7.25807 13.5322 7.58468 13.2057 7.98387 13.2057L15 13.2057V9.15406C15 8.50702 15.7802 8.18652 16.2399 8.64005L22.2278 14.6267C22.5121 14.911 22.5121 15.3705 22.2278 15.6548L16.2399 21.6414C15.7802 22.101 15 21.7745 15 21.1274V17.0758H7.98387C7.58468 17.0758 7.25807 16.7493 7.25807 16.3502Z" fill="white"/>
</svg>
