<svg width="19" height="19" viewBox="0 0 19 19" fill="none" xmlns="http://www.w3.org/2000/svg">
<path d="M15.6514 18.5405L12.1291 15.0536C11.9701 14.8962 11.8811 14.6823 11.88 14.4573L11.8771 13.8843C10.6411 14.8608 9.08324 15.4451 7.38538 15.4537C3.34638 15.474 0.0572031 12.2179 0.0368481 8.17908C0.0164931 4.14023 3.27268 0.851189 7.31169 0.830842C11.3507 0.810494 14.6399 4.06657 14.6602 8.10541C14.6688 9.80321 14.1001 11.3668 13.1362 12.6125L13.7092 12.6096C13.9342 12.6085 14.149 12.6953 14.308 12.8527L17.8304 16.3396C18.1625 16.6683 18.1652 17.2026 17.8364 17.5312L16.8466 18.531C16.5178 18.8631 15.9835 18.8658 15.6514 18.5405ZM11.848 8.11958C11.8355 5.63441 9.81465 3.63038 7.32586 3.64292C4.84059 3.65544 2.83649 5.67622 2.84904 8.16492C2.86156 10.6501 4.88243 12.6541 7.37121 12.6416C9.85648 12.6291 11.8606 10.6083 11.848 8.11958Z" fill="white"/>
</svg>
